HIERARCHY
ROOT Hips
{
	OFFSET 56.877701 -32.693596 43.373703
	CHANNELS 6 Xposition Yposition Zposition Zrotation Xrotation Yrotation
	JOINT Chest
	{
		OFFSET -0.779999 1.005800 5.403099
		CHANNELS 6 Xposition Yposition Zposition Zrotation Xrotation Yrotation
		JOINT Chest2
		{
			OFFSET 0.000000 0.000000 4.236801
			CHANNELS 6 Xposition Yposition Zposition Zrotation Xrotation Yrotation
			JOINT Neck
			{
				OFFSET 0.000000 0.000000 9.874401
				CHANNELS 6 Xposition Yposition Zposition Zrotation Xrotation Yrotation
				JOINT Head
				{
					OFFSET 0.000000 0.000002 2.173893
					CHANNELS 6 Xposition Yposition Zposition Zrotation Xrotation Yrotation
					End Site
					{
						OFFSET 0.000000 0.000000 6.508102
					}
				}
			}
			JOINT LeftCollar
			{
				OFFSET 2.681599 -0.377600 5.432499
				CHANNELS 6 Xposition Yposition Zposition Zrotation Xrotation Yrotation
				JOINT LeftShoulder
				{
					OFFSET 5.161499 0.000000 0.000000
					CHANNELS 6 Xposition Yposition Zposition Zrotation Xrotation Yrotation
					JOINT LeftElbow
					{
						OFFSET 0.000000 0.000000 -10.869099
						CHANNELS 6 Xposition Yposition Zposition Zrotation Xrotation Yrotation
						JOINT LeftWrist
						{
							OFFSET 0.000000 0.000000 -13.344799
							CHANNELS 6 Xposition Yposition Zposition Zrotation Xrotation Yrotation
							End Site
							{
								OFFSET 0.000000 0.000000 -2.173901
							}
						}
					}
				}
			}
			JOINT RightCollar
			{
				OFFSET -2.381901 -1.419600 6.136600
				CHANNELS 6 Xposition Yposition Zposition Zrotation Xrotation Yrotation
				JOINT RightShoulder
				{
					OFFSET -4.550499 0.000000 0.000000
					CHANNELS 6 Xposition Yposition Zposition Zrotation Xrotation Yrotation
					JOINT RightElbow
					{
						OFFSET 0.000000 0.000000 -11.106499
						CHANNELS 6 Xposition Yposition Zposition Zrotation Xrotation Yrotation
						JOINT RightWrist
						{
							OFFSET 0.000000 0.000000 -12.874298
							CHANNELS 6 Xposition Yposition Zposition Zrotation Xrotation Yrotation
							End Site
							{
								OFFSET 0.000000 0.000000 -2.173901
							}
						}
					}
				}
			}
		}
	}
	JOINT LeftHip
	{
		OFFSET 2.431900 0.469601 -2.489399
		CHANNELS 6 Xposition Yposition Zposition Zrotation Xrotation Yrotation
		JOINT LeftKnee
		{
			OFFSET 0.000000 -0.000004 -18.200201
			CHANNELS 6 Xposition Yposition Zposition Zrotation Xrotation Yrotation
			JOINT LeftAnkle
			{
				OFFSET 0.000000 0.000000 -16.279900
				CHANNELS 6 Xposition Yposition Zposition Zrotation Xrotation Yrotation
				End Site
				{
					OFFSET 0.000000 -8.394100 0.000000
				}
			}
		}
	}
	JOINT RightHip
	{
		OFFSET -1.987999 -0.073502 -2.713001
		CHANNELS 6 Xposition Yposition Zposition Zrotation Xrotation Yrotation
		JOINT RightKnee
		{
			OFFSET 0.000000 -0.000004 -19.547802
			CHANNELS 6 Xposition Yposition Zposition Zrotation Xrotation Yrotation
			JOINT RightAnkle
			{
				OFFSET 0.000000 0.000000 -14.881199
				CHANNELS 6 Xposition Yposition Zposition Zrotation Xrotation Yrotation
				End Site
				{
					OFFSET 0.000000 -7.922699 0.000000
				}
			}
		}
	}
}
MOTION
Frames: 4
Frame Time: 0.041667
72.114403 21.463699 42.485199 4655.544365 13.564070 -0.558055 -0.780009 1.005798 5.403093 25.016328 -2.368694 -4.284147 -0.000003 -0.000001 4.236794 -26.874143 -2.968019 -3.140226 0.000007 0.000000 9.874395 57.676091 9.359583 3.985960 0.000000 -0.000003 2.173892 3.371888 0.010863 7.489389 2.681601 -0.377605 5.432494 1.270765 0.190754 9.253464 5.161497 -0.000005 0.000009 -183.547113 -169.259095 -252.373359 0.000003 -0.000001 -10.869100 31.677625 -20.646417 51.388147 0.000012 -0.000004 -13.344791 11.859817 2.993718 -58.642720 -2.381902 -1.419605 6.136590 9.098644 1.217068 14.912253 -4.550508 -0.000001 0.000001 -1254.312441 -544.671304 -453.443254 0.000000 0.000002 -11.106503 681.217769 -53.785281 670.832275 -0.000006 0.000007 -12.874290 -391.996933 -15.912811 44.636912 2.431891 0.469603 -2.489394 5.251698 -17.154193 4.823762 -0.000001 -0.000005 -18.200203 26.576090 19.792744 9.502784 -0.000002 -0.000001 -16.279902 -10.152597 33.158222 -14.100759 -1.988004 -0.073495 -2.713005 -151.339794 -9.742946 -118.189211 -0.000004 -0.000010 -19.547798 -1954.458303 35.251825 214.765285 0.000004 0.000001 -14.881201 1755.983716 23.983159 -25.155430
72.103699 21.473801 42.482002 4655.587641 13.497974 -0.677877 -0.780002 1.005805 5.403103 24.974998 -2.226002 -4.203491 0.000001 -0.000003 4.236806 -26.835885 -2.990790 -3.140816 0.000004 0.000005 9.874404 57.511552 9.301012 4.058611 0.000003 -0.000002 2.173892 3.463518 0.024286 7.407033 2.681597 -0.377598 5.432497 1.307031 0.176292 9.201191 5.161502 0.000004 -0.000003 -183.589775 -169.273931 -252.329810 0.000006 0.000004 -10.869099 31.808683 -20.499877 51.476318 -0.000003 -0.000009 -13.344802 11.882923 3.059704 -58.841882 -2.381892 -1.419597 6.136590 9.029341 1.128629 14.881229 -4.550507 -0.000005 -0.000002 -1254.258564 -544.779003 -453.454920 -0.000001 0.000002 -11.106495 681.194328 -53.821843 670.850252 -0.000008 0.000006 -12.874290 -392.040947 -15.891861 44.615018 2.431897 0.469604 -2.489401 5.353269 -17.115848 4.956955 -0.000003 0.000000 -18.200199 26.568908 19.836941 9.469534 0.000002 0.000006 -16.279898 -10.188056 33.173454 -14.123655 -1.988004 -0.073491 -2.713004 -151.336624 -9.902393 -118.108587 -0.000009 -0.000006 -19.547791 -1954.562122 35.180665 214.837795 0.000006 -0.000004 -14.881199 1755.948745 23.948795 -25.266681
72.093300 21.483101 42.479000 4655.630480 13.435789 -0.805525 -0.779999 1.005799 5.403093 24.934055 -2.083784 -4.114725 0.000008 -0.000001 4.236797 -26.801488 -3.012726 -3.144387 0.000011 0.000007 9.874401 57.362961 9.244499 4.120569 -0.000003 0.000000 2.173901 3.547911 0.039932 7.339081 2.681604 -0.377600 5.432507 1.363152 0.163364 9.133012 5.161506 0.000003 -0.000002 -183.642135 -169.287632 -252.267546 -0.000002 0.000009 -10.869095 31.894788 -20.393857 51.544009 -0.000006 0.000002 -13.344804 11.875115 3.091752 -58.976286 -2.381899 -1.419598 6.136594 8.958998 1.029706 14.864537 -4.550511 0.000003 0.000003 -1254.203923 -544.897848 -453.480247 -0.000005 -0.000004 -11.106495 681.203234 -53.884831 670.894566 -0.000006 0.000005 -12.874296 -392.116106 -15.879368 44.561588 2.431892 0.469596 -2.489402 5.440424 -17.082544 5.094928 0.000008 -0.000000 -18.200199 26.557061 19.883784 9.441006 -0.000002 0.000004 -16.279903 -10.205241 33.180929 -14.120358 -1.988007 -0.073499 -2.713010 -151.328032 -10.070277 -118.019317 -0.000004 -0.000007 -19.547789 -1954.678618 35.105858 214.918773 0.000006 -0.000012 -14.881201 1755.902737 23.910711 -25.358957
72.083405 21.491104 42.476303 4655.673756 13.373609 -0.942421 -0.780010 1.005787 5.403099 24.892681 -1.937500 -4.016993 -0.000005 -0.000005 4.236801 -26.770049 -3.032490 -3.152769 0.000008 0.000006 9.874405 57.234062 9.191403 4.169184 -0.000004 0.000005 2.173896 3.618352 0.056726 7.282337 2.681603 -0.377597 5.432505 1.438797 0.150146 9.051398 5.161500 -0.000005 0.000002 -183.710451 -169.301675 -252.198561 0.000001 0.000004 -10.869101 31.974899 -20.293718 51.610135 0.000008 -0.000005 -13.344800 11.865359 3.121136 -59.088390 -2.381891 -1.419593 6.136599 8.888878 0.922747 14.865910 -4.550503 -0.000013 0.000005 -1254.156385 -545.013797 -453.521911 0.000005 -0.000007 -11.106499 681.228205 -53.964088 670.942268 -0.000004 0.000001 -12.874303 -392.208532 -15.868676 44.490756 2.431893 0.469591 -2.489398 5.530933 -17.047029 5.242029 0.000006 0.000002 -18.200203 26.522205 19.932152 9.419429 0.000009 -0.000002 -16.279898 -10.201115 33.179454 -14.122457 -1.988010 -0.073506 -2.713005 -151.312555 -10.244809 -117.920525 -0.000004 -0.000004 -19.547798 -1954.805386 35.033659 215.018658 0.000003 -0.000000 -14.881197 1755.830392 23.899274 -25.399042
